{"title":"Hollywood Homicide (2003) - DVDRip - MP3 - ENG","uid":4422576,"size":738711189,"categoryP":"video","categoryS":"movies","magnet":"?xt=urn:btih:682b1c594f2ffd1a6d9ddca7afd98e53879295a2&amp;dn=Hollywood+Homicide+%282003%29+-+DVDRip+-+MP3+-+ENG&amp;tr=udp%3A%2F%2Ftracker.openbittorrent.com%3A80&amp;tr=udp%3A%2F%2Fopen.demonii.com%3A1337&amp;tr=udp%3A%2F%2Ftracker.coppersurfer.tk%3A6969&amp;tr=udp%3A%2F%2Fexodus.desync.com%3A6969","seeders":8,"leechers":1,"uploader":"206andy206","files":-1,"time":1222820636,"description":"IMDB: http://www.imdb.com/title/tt0329717\nUser Rating: 5.2/10 (12,799 votes)\nRelease Date: 29 August 2003 (UK)\nGenre: Action | Comedy | Crime | Thriller\n\nTagline: In Hollywood, no one is who they really want to be.\n\nWhen not solving murders in Tinseltown, Detective Joe Gavilan and his rookie partner Kasey Calden both moonlight in other fields: Gavilan sells real estate (poorly), and Calden aspires to become an actor (Brando, namely). Assigned to the vicious in-club slaying of a promising young rap act, the two detective delve into the recording industry where they hope to find answers - ideally ones that also come with property buyers or auditions. \n\nCast:\nHarrison Ford   \t... \tSgt. Joe Gavilan\nJosh Hartnett    \t... \tDet. K.C. Calden\nLena Olin       \t... \tRuby\nBruce Greenwood\t        ... \tLt. Bennie Macko\nIsaiah Washington\t... \tAntoine Sartain\nLolita Davidovich\t... \tCleo Ricard\nKeith David     \t... \tLeon\nMaster P        \t... \tJulius Armas\nGladys Knight   \t... \tOlivia Robidoux\nLou Diamond Phillips\t... \tWanda\nMeredith Scott Lynn\t... \tI.A. Detective Jackson\nTom Todoroff\t        ... \tI.A. Detective Zino\nJames MacDonald\t        ... \tDanny Broome\nKurupt\t                ... \tK-Ro\nAndrÃƒÆ’Ã‚Â© Benjamin         ... \tSilk Brown (as Andre Benjamin)\n\n\n\n\nGeneral\nComplete name                    : Hollywood Homicide.avi\nFormat                           : AVI\nSource                           : PAL DVD\nFile size                        : 704 MiB\nDuration                         : 1h 51mn\nOveral bit rate                  : 885 Kbps\nIAS1                             : English\n\nVideo\nFormat                           : MPEG-4 Visual\nCodec ID                         : XVID\nDuration                         : 1h 51mn\nBit rate                         : 766 Kbps\nWidth                            : 608 pixels\nHeight                           : 256 pixels\nDisplay aspect ratio             : 2.35\nFrame rate                       : 25.000 fps\nResolution                       : 8 bits\nColorimetry                      : 4:2:0\nScan type                        : Progressive\nBits/(Pixel*Frame)               : 0.197\nStream size                      : 610 MiB (87%)\n\nAudio\nFormat                           : MPEG Audio\nFormat version                   : Version 1\nFormat profile                   : Layer 3\nCodec ID                         : 55\nCodec ID/Hint                    : MP3\nDuration                         : 1h 51mn\nBit rate mode                    : Constant\nBit rate                         : 112 Kbps\nMinimum bit rate                 : 112 Kbps\nChannel(s)                       : 2 channels\nSampling rate                    : 44.1 KHz\nResolution                       : 16 bits\nStream size                      : 89.1 MiB (13%)\nWriting library                  : LAME3.97 \nEncoding settings                : CBR\n\nTrackers: &lt;a href=&quot;\nhttp://www.torrent-downloads.to:5869/announce&quot; rel=&quot;nofollow&quot; target=&quot;_NEW&quot;&gt;\nhttp://www.torrent-downloads.to:5869/announce&lt;/a&gt;\nhttp://open.tracker.thepiratebay.se:80/announce\nhttp://tpb.tracker.thepiratebay.se:80/announce\nhttp://vip.tracker.thepiratebay.se/announce\n\n\nInfo Hash:\n\n682B1C594F2FFD1A6D9DDCA7AFD98E53879295A2\n\n\n\nEnjoy, and please seed.\n","torrent":{"xt":"urn:btih:682b1c594f2ffd1a6d9ddca7afd98e53879295a2","amp;dn":"Hollywood+Homicide+%282003%29+-+DVDRip+-+MP3+-+ENG","amp;tr":["udp%3A%2F%2Ftracker.openbittorrent.com%3A80","udp%3A%2F%2Fopen.demonii.com%3A1337","udp%3A%2F%2Ftracker.coppersurfer.tk%3A6969","udp%3A%2F%2Fexodus.desync.com%3A6969"],"infoHash":"682b1c594f2ffd1a6d9ddca7afd98e53879295a2","infoHashBuffer":{"type":"Buffer","data":[104,43,28,89,79,47,253,26,109,157,220,167,175,217,142,83,135,146,149,162]},"announce":[],"urlList":[]}}